<svg width="20" height="20" viewBox="0 0 20 20" fill="none" xmlns="http://www.w3.org/2000/svg">
<path d="M10.9329 14.1858L7.43369 12.2775C6.97685 12.7659 6.38367 13.1055 5.73125 13.2524C5.07882 13.3992 4.39731 13.3464 3.77529 13.1008C3.15326 12.8553 2.61949 12.4283 2.24333 11.8753C1.86717 11.3224 1.66602 10.6691 1.66602 10.0004C1.66602 9.33164 1.86717 8.67835 2.24333 8.12543C2.61949 7.57251 3.15326 7.14551 3.77529 6.89994C4.39731 6.65436 5.07882 6.60156 5.73125 6.7484C6.38367 6.89523 6.97685 7.23492 7.43369 7.7233L10.9337 5.81497C10.735 5.02836 10.83 4.19629 11.2009 3.47472C11.5718 2.75315 12.1931 2.19162 12.9484 1.89539C13.7037 1.59915 14.5411 1.58856 15.3037 1.86558C16.0662 2.14261 16.7016 2.68823 17.0906 3.40019C17.4796 4.11214 17.5957 4.94154 17.4169 5.73292C17.2382 6.5243 16.777 7.22333 16.1197 7.69898C15.4625 8.17462 14.6543 8.39423 13.8467 8.31663C13.0391 8.23903 12.2875 7.86956 11.7329 7.27747L8.23285 9.1858C8.36719 9.72027 8.36719 10.2797 8.23285 10.8141L11.732 12.7225C12.2867 12.1304 13.0383 11.7609 13.8459 11.6833C14.6535 11.6057 15.4616 11.8253 16.1189 12.301C16.7761 12.7766 17.2374 13.4756 17.4161 14.267C17.5948 15.0584 17.4788 15.8878 17.0898 16.5998C16.7007 17.3117 16.0654 17.8573 15.3028 18.1344C14.5403 18.4114 13.7029 18.4008 12.9476 18.1045C12.1923 17.8083 11.5709 17.2468 11.2 16.5252C10.8292 15.8036 10.7341 14.9716 10.9329 14.185V14.1858ZM4.99952 11.6666C5.44155 11.6666 5.86547 11.491 6.17803 11.1785C6.49059 10.8659 6.66619 10.442 6.66619 9.99997C6.66619 9.55794 6.49059 9.13402 6.17803 8.82146C5.86547 8.5089 5.44155 8.3333 4.99952 8.3333C4.55749 8.3333 4.13357 8.5089 3.82101 8.82146C3.50845 9.13402 3.33285 9.55794 3.33285 9.99997C3.33285 10.442 3.50845 10.8659 3.82101 11.1785C4.13357 11.491 4.55749 11.6666 4.99952 11.6666ZM14.1662 6.66664C14.6082 6.66664 15.0321 6.49104 15.3447 6.17848C15.6573 5.86592 15.8329 5.442 15.8329 4.99997C15.8329 4.55794 15.6573 4.13402 15.3447 3.82146C15.0321 3.5089 14.6082 3.3333 14.1662 3.3333C13.7242 3.3333 13.3002 3.5089 12.9877 3.82146C12.6751 4.13402 12.4995 4.55794 12.4995 4.99997C12.4995 5.442 12.6751 5.86592 12.9877 6.17848C13.3002 6.49104 13.7242 6.66664 14.1662 6.66664ZM14.1662 16.6666C14.6082 16.6666 15.0321 16.491 15.3447 16.1785C15.6573 15.8659 15.8329 15.442 15.8329 15C15.8329 14.5579 15.6573 14.134 15.3447 13.8215C15.0321 13.5089 14.6082 13.3333 14.1662 13.3333C13.7242 13.3333 13.3002 13.5089 12.9877 13.8215C12.6751 14.134 12.4995 14.5579 12.4995 15C12.4995 15.442 12.6751 15.8659 12.9877 16.1785C13.3002 16.491 13.7242 16.6666 14.1662 16.6666Z" fill="#262338"/>
</svg>
