<svg width="20" height="20" viewBox="0 0 20 20" fill="none" xmlns="http://www.w3.org/2000/svg">
<path d="M5.26713 9.10909C5.05706 8.89795 4.9393 8.61212 4.93966 8.31428C4.94002 8.01644 5.05848 7.7309 5.26905 7.52027C5.47962 7.30963 5.76513 7.19109 6.06297 7.19065C6.36081 7.1902 6.64667 7.30787 6.85787 7.51788L8.875 9.53444V1.75C8.875 1.45163 8.99353 1.16548 9.2045 0.954505C9.41548 0.743526 9.70163 0.625 10 0.625C10.2984 0.625 10.5845 0.743526 10.7955 0.954505C11.0065 1.16548 11.125 1.45163 11.125 1.75V9.53444L13.1421 7.51788C13.3533 7.30787 13.6392 7.1902 13.937 7.19065C14.2349 7.19109 14.5204 7.30963 14.731 7.52027C14.9415 7.7309 15.06 8.01644 15.0603 8.31428C15.0607 8.61212 14.9429 8.89795 14.7329 9.10909L10.7954 13.0457C10.5844 13.2566 10.2983 13.375 10 13.375C9.70169 13.375 9.41559 13.2566 9.20463 13.0457L5.26713 9.10909ZM18.25 11.125C17.9516 11.125 17.6655 11.2435 17.4545 11.4545C17.2435 11.6655 17.125 11.9516 17.125 12.25V17.125H2.875V12.25C2.875 11.9516 2.75647 11.6655 2.5455 11.4545C2.33452 11.2435 2.04837 11.125 1.75 11.125C1.45163 11.125 1.16548 11.2435 0.954505 11.4545C0.743526 11.6655 0.625 11.9516 0.625 12.25V17.5C0.625546 17.9971 0.823265 18.4737 1.17478 18.8252C1.52629 19.1767 2.00289 19.3745 2.5 19.375H17.5C17.9971 19.3745 18.4737 19.1767 18.8252 18.8252C19.1767 18.4737 19.3745 17.9971 19.375 17.5V12.25C19.375 11.9516 19.2565 11.6655 19.0455 11.4545C18.8345 11.2435 18.5484 11.125 18.25 11.125Z" fill="#00C7FF"/>
</svg>
