<svg width="20" height="20" viewBox="0 0 20 20" fill="none" xmlns="http://www.w3.org/2000/svg">
<path fill-rule="evenodd" clip-rule="evenodd" d="M14.0996 16.8612C13.9727 16.8612 13.8451 16.8315 13.7279 16.7705L9.63391 14.6315L5.54075 16.7705C5.26938 16.911 4.9418 16.8869 4.69611 16.707C4.44882 16.5272 4.32598 16.2229 4.37816 15.9218L5.15777 11.4031L1.84985 8.20358C1.62986 7.99081 1.55037 7.67126 1.64431 7.37901C1.73825 7.08836 1.98956 6.87559 2.29305 6.83224L6.86954 6.16744L8.91532 2.05181C9.18669 1.50584 10.0819 1.50584 10.3533 2.05181L12.3991 6.16744L16.9756 6.83224C17.2791 6.87559 17.5304 7.08836 17.6243 7.37901C17.7182 7.67126 17.6388 7.99081 17.4188 8.20358L14.1108 11.4031L14.8904 15.9218C14.9426 16.2229 14.819 16.5272 14.5725 16.707C14.4328 16.8098 14.2666 16.8612 14.0996 16.8612Z" fill="#FF9D2B"/>
<mask id="mask0_5368_42907" style="mask-type:luminance" maskUnits="userSpaceOnUse" x="1" y="1" width="17" height="16">
<path fill-rule="evenodd" clip-rule="evenodd" d="M14.0996 16.8612C13.9727 16.8612 13.8451 16.8315 13.7279 16.7705L9.63391 14.6315L5.54075 16.7705C5.26938 16.911 4.9418 16.8869 4.69611 16.707C4.44882 16.5272 4.32598 16.2229 4.37816 15.9218L5.15777 11.4031L1.84985 8.20358C1.62986 7.99081 1.55037 7.67126 1.64431 7.37901C1.73825 7.08836 1.98956 6.87559 2.29305 6.83224L6.86954 6.16744L8.91532 2.05181C9.18669 1.50584 10.0819 1.50584 10.3533 2.05181L12.3991 6.16744L16.9756 6.83224C17.2791 6.87559 17.5304 7.08836 17.6243 7.37901C17.7182 7.67126 17.6388 7.99081 17.4188 8.20358L14.1108 11.4031L14.8904 15.9218C14.9426 16.2229 14.819 16.5272 14.5725 16.707C14.4328 16.8098 14.2666 16.8612 14.0996 16.8612Z" fill="white"/>
</mask>
<g mask="url(#mask0_5368_42907)">
</g>
</svg>
