<svg width="23" height="24" viewBox="0 0 23 24" fill="none" xmlns="http://www.w3.org/2000/svg">
<path d="M2.3335 10.1833C2.3335 9.22971 2.78681 8.33294 3.55465 7.76754L11.5002 1.91675L19.4457 7.76753C20.2135 8.33294 20.6668 9.2297 20.6668 10.1833V19.5834C20.6668 20.9641 19.5475 22.0834 18.1668 22.0834H15.2502C14.6979 22.0834 14.2502 21.6357 14.2502 21.0834V15.7084C14.2502 15.4323 14.0263 15.2084 13.7502 15.2084H9.25016C8.97402 15.2084 8.75016 15.4323 8.75016 15.7084V21.0834C8.75016 21.6357 8.30245 22.0834 7.75016 22.0834H4.83349C3.45278 22.0834 2.3335 20.9641 2.3335 19.5834V10.1833Z" stroke="#6E7191" stroke-width="2" stroke-linecap="round" stroke-linejoin="round"/>
</svg>
