<svg width="20" height="20" viewBox="0 0 20 20" fill="none" xmlns="http://www.w3.org/2000/svg">
<path d="M15.8337 16.6667H4.16699V17.5C4.16699 17.721 4.07919 17.933 3.92291 18.0893C3.76663 18.2455 3.55467 18.3333 3.33366 18.3333H2.50033C2.27931 18.3333 2.06735 18.2455 1.91107 18.0893C1.75479 17.933 1.66699 17.721 1.66699 17.5V9.16666L3.73366 4.34333C3.86226 4.04333 4.07612 3.78769 4.3487 3.60815C4.62129 3.4286 4.94059 3.33304 5.26699 3.33333H14.7337C15.0598 3.33336 15.3787 3.42908 15.651 3.6086C15.9232 3.78813 16.1368 4.04359 16.2653 4.34333L18.3337 9.16666V17.5C18.3337 17.721 18.2459 17.933 18.0896 18.0893C17.9333 18.2455 17.7213 18.3333 17.5003 18.3333H16.667C16.446 18.3333 16.234 18.2455 16.0777 18.0893C15.9215 17.933 15.8337 17.721 15.8337 17.5V16.6667ZM16.667 10.8333H3.33366V15H16.667V10.8333ZM3.48033 9.16666H16.5203L14.7345 5H5.26699L3.48116 9.16666H3.48033ZM5.41699 14.1667C5.08547 14.1667 4.76753 14.035 4.53311 13.8005C4.29869 13.5661 4.16699 13.2482 4.16699 12.9167C4.16699 12.5851 4.29869 12.2672 4.53311 12.0328C4.76753 11.7984 5.08547 11.6667 5.41699 11.6667C5.74851 11.6667 6.06646 11.7984 6.30088 12.0328C6.5353 12.2672 6.66699 12.5851 6.66699 12.9167C6.66699 13.2482 6.5353 13.5661 6.30088 13.8005C6.06646 14.035 5.74851 14.1667 5.41699 14.1667ZM14.5837 14.1667C14.2521 14.1667 13.9342 14.035 13.6998 13.8005C13.4654 13.5661 13.3337 13.2482 13.3337 12.9167C13.3337 12.5851 13.4654 12.2672 13.6998 12.0328C13.9342 11.7984 14.2521 11.6667 14.5837 11.6667C14.9152 11.6667 15.2331 11.7984 15.4675 12.0328C15.702 12.2672 15.8337 12.5851 15.8337 12.9167C15.8337 13.2482 15.702 13.5661 15.4675 13.8005C15.2331 14.035 14.9152 14.1667 14.5837 14.1667Z" fill="#262338"/>
</svg>
