<svg width="24" height="24" viewBox="0 0 24 24" fill="none" xmlns="http://www.w3.org/2000/svg">
<path d="M6.382 5.96803C7.97575 4.6911 9.95781 3.99677 12 4.00003C14.125 4.00003 16.078 4.73603 17.618 5.96803L19.071 4.51503L20.485 5.92903L19.032 7.38203C20.0897 8.70618 20.7521 10.3021 20.9428 11.986C21.1336 13.67 20.845 15.3736 20.1103 16.9008C19.3756 18.428 18.2246 19.7167 16.7898 20.6186C15.355 21.5206 13.6947 21.9991 12 21.9991C10.3053 21.9991 8.64498 21.5206 7.2102 20.6186C5.77541 19.7167 4.62443 18.428 3.88973 16.9008C3.15502 15.3736 2.86644 13.67 3.0572 11.986C3.24796 10.3021 3.9103 8.70618 4.96801 7.38203L3.51501 5.93003L4.92901 4.51603L6.382 5.96903V5.96803ZM12 20C12.9193 20 13.8295 19.819 14.6788 19.4672C15.5281 19.1154 16.2997 18.5998 16.9498 17.9498C17.5998 17.2998 18.1154 16.5281 18.4672 15.6788C18.8189 14.8295 19 13.9193 19 13C19 12.0808 18.8189 11.1705 18.4672 10.3212C18.1154 9.47197 17.5998 8.70029 16.9498 8.05028C16.2997 7.40027 15.5281 6.88466 14.6788 6.53287C13.8295 6.18109 12.9193 6.00003 12 6.00003C10.1435 6.00003 8.36301 6.73753 7.05026 8.05028C5.7375 9.36304 5.00001 11.1435 5.00001 13C5.00001 14.8565 5.7375 16.637 7.05026 17.9498C8.36301 19.2625 10.1435 20 12 20ZM13 12H16L11 18.5V14H8.00001L13 7.49503V12ZM8.00001 1.00003H16V3.00003H8.00001V1.00003Z" fill="#6E7191"/>
</svg>
