<svg width="106" height="106" viewBox="0 0 106 106" fill="none" xmlns="http://www.w3.org/2000/svg">
<mask id="path-1-inside-1_5458_42577" fill="white">
<path fill-rule="evenodd" clip-rule="evenodd" d="M105.875 53.0002C105.875 82.0181 82.3511 105.542 53.3332 105.542C24.3152 105.542 0.791504 82.0181 0.791504 53.0002C0.791504 23.9822 24.3152 0.458496 53.3332 0.458496C82.3511 0.458496 105.875 23.9822 105.875 53.0002ZM60.6082 53C60.6082 57.0179 57.3511 60.275 53.3333 60.275C49.3154 60.275 46.0583 57.0179 46.0583 53C46.0583 48.9821 49.3154 45.725 53.3333 45.725C57.3511 45.725 60.6082 48.9821 60.6082 53Z"/>
</mask>
<path fill-rule="evenodd" clip-rule="evenodd" d="M105.875 53.0002C105.875 82.0181 82.3511 105.542 53.3332 105.542C24.3152 105.542 0.791504 82.0181 0.791504 53.0002C0.791504 23.9822 24.3152 0.458496 53.3332 0.458496C82.3511 0.458496 105.875 23.9822 105.875 53.0002ZM60.6082 53C60.6082 57.0179 57.3511 60.275 53.3333 60.275C49.3154 60.275 46.0583 57.0179 46.0583 53C46.0583 48.9821 49.3154 45.725 53.3333 45.725C57.3511 45.725 60.6082 48.9821 60.6082 53Z" fill="#333333"/>
<path d="M53.3332 106.542C82.9034 106.542 106.875 82.5704 106.875 53.0002H104.875C104.875 81.4658 81.7989 104.542 53.3332 104.542V106.542ZM-0.208496 53.0002C-0.208496 82.5704 23.7629 106.542 53.3332 106.542V104.542C24.8675 104.542 1.7915 81.4658 1.7915 53.0002H-0.208496ZM53.3332 -0.541504C23.7629 -0.541504 -0.208496 23.4299 -0.208496 53.0002H1.7915C1.7915 24.5345 24.8675 1.4585 53.3332 1.4585V-0.541504ZM106.875 53.0002C106.875 23.4299 82.9034 -0.541504 53.3332 -0.541504V1.4585C81.7989 1.4585 104.875 24.5345 104.875 53.0002H106.875ZM53.3333 61.275C57.9034 61.275 61.6082 57.5702 61.6082 53H59.6082C59.6082 56.4656 56.7988 59.275 53.3333 59.275V61.275ZM45.0583 53C45.0583 57.5702 48.7631 61.275 53.3333 61.275V59.275C49.8677 59.275 47.0583 56.4656 47.0583 53H45.0583ZM53.3333 44.725C48.7631 44.725 45.0583 48.4298 45.0583 53H47.0583C47.0583 49.5344 49.8677 46.725 53.3333 46.725V44.725ZM61.6082 53C61.6082 48.4298 57.9034 44.725 53.3333 44.725V46.725C56.7988 46.725 59.6082 49.5344 59.6082 53H61.6082Z" fill="#4C4C4C" mask="url(#path-1-inside-1_5458_42577)"/>
<path opacity="0.03" d="M53.333 99.8832C79.226 99.8832 100.216 78.8928 100.216 52.9998C100.216 27.1069 79.226 6.11652 53.333 6.11652C27.4401 6.11652 6.44971 27.1069 6.44971 52.9998C6.44971 78.8928 27.4401 99.8832 53.333 99.8832Z" fill="url(#paint0_linear_5458_42577)" stroke="url(#paint1_linear_5458_42577)"/>
<path opacity="0.05" d="M53.3332 12.5837C75.6547 12.5837 93.7498 30.6788 93.7498 53.0003C93.7498 75.3218 75.6547 93.417 53.3332 93.417C31.0117 93.417 12.9165 75.3218 12.9165 53.0003C12.9165 30.6788 31.0117 12.5837 53.3332 12.5837Z" stroke="url(#paint2_linear_5458_42577)"/>
<path opacity="0.03" d="M53.3331 86.1418C71.6367 86.1418 86.4747 71.3038 86.4747 53.0002C86.4747 34.6965 71.6367 19.8585 53.3331 19.8585C35.0294 19.8585 20.1914 34.6965 20.1914 53.0002C20.1914 71.3038 35.0294 86.1418 53.3331 86.1418Z" fill="url(#paint3_linear_5458_42577)" stroke="url(#paint4_linear_5458_42577)"/>
<path opacity="0.05" d="M53.3332 27.9418C67.1726 27.9418 78.3916 39.1608 78.3916 53.0002C78.3916 66.8395 67.1726 78.0585 53.3332 78.0585C39.4939 78.0585 28.2749 66.8395 28.2749 53.0002C28.2749 39.1608 39.4939 27.9418 53.3332 27.9418Z" stroke="url(#paint5_linear_5458_42577)"/>
<path opacity="0.05" d="M53.3331 70.7836C63.1546 70.7836 71.1165 62.8218 71.1165 53.0003C71.1165 43.1788 63.1546 35.217 53.3331 35.217C43.5117 35.217 35.5498 43.1788 35.5498 53.0003C35.5498 62.8218 43.5117 70.7836 53.3331 70.7836Z" stroke="url(#paint6_linear_5458_42577)"/>
<path opacity="0.05" d="M53.333 42.4918C59.1366 42.4918 63.8414 47.1966 63.8414 53.0002C63.8414 58.8038 59.1366 63.5085 53.333 63.5085C47.5294 63.5085 42.8247 58.8038 42.8247 53.0002C42.8247 47.1966 47.5294 42.4918 53.333 42.4918Z" stroke="url(#paint7_linear_5458_42577)"/>
<defs>
<linearGradient id="paint0_linear_5458_42577" x1="53.333" y1="-40.7668" x2="-40.4336" y2="52.9999" gradientUnits="userSpaceOnUse">
<stop stop-color="#00BAFD"/>
<stop offset="1" stop-color="#00D8FF"/>
</linearGradient>
<linearGradient id="paint1_linear_5458_42577" x1="-35.6766" y1="48.875" x2="49.8404" y2="133.128" gradientUnits="userSpaceOnUse">
<stop stop-color="#6B6B6B"/>
<stop offset="1" stop-color="#A8A8A8"/>
</linearGradient>
<linearGradient id="paint2_linear_5458_42577" x1="30.7004" y1="67.877" x2="30.7004" y2="22.6114" gradientUnits="userSpaceOnUse">
<stop stop-color="white" stop-opacity="0.2"/>
<stop offset="1" stop-color="#A2ADBE"/>
</linearGradient>
<linearGradient id="paint3_linear_5458_42577" x1="53.3331" y1="-13.2832" x2="-12.9503" y2="53.0002" gradientUnits="userSpaceOnUse">
<stop stop-color="#00BAFD"/>
<stop offset="1" stop-color="#00D8FF"/>
</linearGradient>
<linearGradient id="paint4_linear_5458_42577" x1="-9.58756" y1="50.0843" x2="50.8641" y2="109.642" gradientUnits="userSpaceOnUse">
<stop stop-color="#6B6B6B"/>
<stop offset="1" stop-color="#A8A8A8"/>
</linearGradient>
<linearGradient id="paint5_linear_5458_42577" x1="39.3009" y1="62.2237" x2="39.3009" y2="34.1591" gradientUnits="userSpaceOnUse">
<stop stop-color="white" stop-opacity="0.2"/>
<stop offset="1" stop-color="#A2ADBE"/>
</linearGradient>
<linearGradient id="paint6_linear_5458_42577" x1="19.5708" y1="51.4357" x2="52.0083" y2="83.3936" gradientUnits="userSpaceOnUse">
<stop stop-color="#6B6B6B" stop-opacity="0.5"/>
<stop offset="1" stop-color="#A8A8A8"/>
</linearGradient>
<linearGradient id="paint7_linear_5458_42577" x1="47.4485" y1="56.8681" x2="47.4485" y2="45.0991" gradientUnits="userSpaceOnUse">
<stop stop-color="white"/>
<stop offset="1" stop-color="#A2ADBE"/>
</linearGradient>
</defs>
</svg>
