<svg width="18" height="18" viewBox="0 0 18 18" fill="none" xmlns="http://www.w3.org/2000/svg">
<path d="M1.70749 0.980047L16.7575 8.17862C16.9094 8.25134 17.0377 8.36554 17.1274 8.50805C17.2172 8.65055 17.2649 8.81555 17.2649 8.98398C17.2649 9.15241 17.2172 9.3174 17.1274 9.45991C17.0377 9.60241 16.9094 9.71662 16.7575 9.78933L1.70749 16.9879C1.55314 17.0619 1.38078 17.0899 1.21094 17.0687C1.0411 17.0475 0.880928 16.978 0.749512 16.8683C0.618095 16.7586 0.520969 16.6135 0.469703 16.4502C0.418436 16.2869 0.415188 16.1123 0.460348 15.9472L1.96606 10.4272C1.98449 10.3595 2.02243 10.2988 2.07514 10.2526C2.12786 10.2063 2.19301 10.1766 2.26249 10.1672L9.55535 9.17648C9.58576 9.17221 9.61455 9.16017 9.63895 9.14153C9.66335 9.12289 9.68253 9.09827 9.69463 9.07005L9.70749 9.02505C9.71312 8.98517 9.70511 8.94456 9.68475 8.90981C9.6644 8.87505 9.63289 8.84821 9.59535 8.83362L9.55606 8.82291L2.27035 7.83291C2.201 7.82332 2.136 7.79357 2.08342 7.74734C2.03085 7.70111 1.99302 7.64046 1.97463 7.57291L0.460348 2.02076C0.415188 1.85566 0.418436 1.68107 0.469703 1.51776C0.520969 1.35446 0.618095 1.20933 0.749512 1.09967C0.880928 0.990002 1.0411 0.920422 1.21094 0.899215C1.38078 0.878007 1.55314 0.906065 1.70749 0.980047Z" fill="#A0A3BD"/>
</svg>
