<svg width="24" height="24" viewBox="0 0 24 24" fill="none" xmlns="http://www.w3.org/2000/svg">
<path d="M19.1168 10.5333C18.9002 10.5333 18.6924 10.6194 18.5393 10.7725C18.3861 10.9257 18.3001 11.1334 18.3001 11.35V17.0667C18.3001 17.2833 18.2141 17.491 18.0609 17.6441C17.9077 17.7973 17.7 17.8833 17.4834 17.8833H6.0501C5.8335 17.8833 5.62578 17.7973 5.47263 17.6441C5.31947 17.491 5.23343 17.2833 5.23343 17.0667V10.5333C5.23343 10.3167 5.31947 10.109 5.47263 9.95586C5.62578 9.80271 5.8335 9.71667 6.0501 9.71667H7.68343C7.86152 9.72596 8.03775 9.67671 8.18522 9.57643C8.33268 9.47616 8.44327 9.33037 8.5001 9.16133L8.9411 7.822C8.99588 7.65979 9.10026 7.51891 9.23948 7.41925C9.3787 7.3196 9.54572 7.26622 9.71693 7.26667H14.2168C14.4334 7.26667 14.6411 7.18062 14.7942 7.02747C14.9474 6.87432 15.0334 6.66659 15.0334 6.45C15.0334 6.23341 14.9474 6.02568 14.7942 5.87253C14.6411 5.71937 14.4334 5.63333 14.2168 5.63333H9.6761C9.16286 5.63429 8.66289 5.79641 8.24674 6.0968C7.83059 6.39718 7.51929 6.82068 7.35676 7.3075L7.09543 8.12417H6.0501C5.40032 8.12417 4.77715 8.38229 4.31769 8.84175C3.85822 9.30122 3.6001 9.92439 3.6001 10.5742V17.1075C3.6001 17.7573 3.85822 18.3804 4.31769 18.8399C4.77715 19.2994 5.40032 19.5575 6.0501 19.5575H17.4834C18.1332 19.5575 18.7564 19.2994 19.2158 18.8399C19.6753 18.3804 19.9334 17.7573 19.9334 17.1075V11.3908C19.939 11.2802 19.9219 11.1696 19.8834 11.0658C19.8448 10.9619 19.7856 10.867 19.7092 10.7868C19.6328 10.7066 19.5409 10.6427 19.439 10.5992C19.3372 10.5556 19.2275 10.5332 19.1168 10.5333ZM11.7668 9.71667C11.1207 9.71667 10.4891 9.90825 9.9519 10.2672C9.4147 10.6261 8.996 11.1363 8.74876 11.7332C8.50151 12.3301 8.43682 12.987 8.56287 13.6206C8.68891 14.2543 9.00003 14.8364 9.45688 15.2932C9.91373 15.7501 10.4958 16.0612 11.1295 16.1872C11.7631 16.3133 12.42 16.2486 13.0169 16.0013C13.6138 15.7541 14.124 15.3354 14.4829 14.7982C14.8418 14.261 15.0334 13.6294 15.0334 12.9833C15.0334 12.117 14.6893 11.2861 14.0766 10.6734C13.464 10.0608 12.6331 9.71667 11.7668 9.71667ZM11.7668 14.6167C11.4437 14.6167 11.1279 14.5209 10.8593 14.3414C10.5907 14.1619 10.3814 13.9068 10.2578 13.6084C10.1341 13.3099 10.1018 12.9815 10.1648 12.6647C10.2278 12.3478 10.3834 12.0568 10.6118 11.8284C10.8402 11.6 11.1313 11.4444 11.4481 11.3814C11.765 11.3184 12.0934 11.3507 12.3918 11.4743C12.6903 11.598 12.9454 11.8073 13.1248 12.0759C13.3043 12.3445 13.4001 12.6603 13.4001 12.9833C13.4001 13.4165 13.228 13.832 12.9217 14.1383C12.6154 14.4446 12.2 14.6167 11.7668 14.6167ZM20.7501 5.63333H19.9334V4.81667C19.9334 4.60007 19.8474 4.39235 19.6942 4.2392C19.5411 4.08604 19.3334 4 19.1168 4C18.9002 4 18.6924 4.08604 18.5393 4.2392C18.3861 4.39235 18.3001 4.60007 18.3001 4.81667V5.63333H17.4834C17.2668 5.63333 17.0591 5.71937 16.906 5.87253C16.7528 6.02568 16.6668 6.23341 16.6668 6.45C16.6668 6.66659 16.7528 6.87432 16.906 7.02747C17.0591 7.18062 17.2668 7.26667 17.4834 7.26667H18.3001V8.08333C18.3001 8.29993 18.3861 8.50765 18.5393 8.6608C18.6924 8.81396 18.9002 8.9 19.1168 8.9C19.3334 8.9 19.5411 8.81396 19.6942 8.6608C19.8474 8.50765 19.9334 8.29993 19.9334 8.08333V7.26667H20.7501C20.9667 7.26667 21.1744 7.18062 21.3276 7.02747C21.4807 6.87432 21.5668 6.66659 21.5668 6.45C21.5668 6.23341 21.4807 6.02568 21.3276 5.87253C21.1744 5.71937 20.9667 5.63333 20.7501 5.63333Z" fill="#0095FF"/>
</svg>
