<svg width="228" height="225" viewBox="0 0 228 225" fill="none" xmlns="http://www.w3.org/2000/svg">
<defs>
<linearGradient id="paint0_linear_8_347" x1="58.2325" y1="0" x2="58.2325" y2="224.532" gradientUnits="userSpaceOnUse">
<stop stop-color="#F262FF"/>
<stop offset="1" stop-color="#566CFE"/>
</linearGradient>
<linearGradient id="paint1_linear_8_347" x1="36053" y1="0" x2="36053" y2="91651.9" gradientUnits="userSpaceOnUse">
<stop stop-color="#F262FF"/>
<stop offset="1" stop-color="#566CFE"/>
</linearGradient>
<clipPath id="clip0_8_347">
<rect width="188" height="43" fill="white" transform="translate(20 84)"/>
</clipPath>
<clipPath id="clip1_8_347">
<rect width="228" height="225" fill="white"/>
</clipPath>
</defs>
<g clip-path="url(#clip0_8_347)">
<path d="M41.4419 84C47.5736 84 51.9211 86.0469 54.4844 90.1406C55.5863 91.7994 56.1927 93.7394 56.2321 95.732C56.2321 97.9672 55.3939 100.199 53.7175 102.427C57.8042 104.477 59.8475 107.549 59.8475 111.643C59.8475 121.878 54.7418 126.997 44.5304 127H23.0624V87.0703L20 84H41.4419ZM41.4419 99.3568C43.4939 99.3568 44.5199 98.5966 44.5199 97.0763C44.5199 95.5559 43.4939 94.7801 41.4419 94.7487H35.3171V99.3568H41.4419ZM44.5199 114.714C46.5615 114.714 47.5823 113.69 47.5823 111.643C47.5823 109.593 46.5389 108.573 44.5199 108.573H35.3171V114.714H44.5199Z" fill="#F2F2F2"/>
<path d="M75.1438 84V127H62.889V87.0703L59.8266 84H75.1438Z" fill="#F2F2F2"/>
<path d="M99.6219 84C105.754 84 110.101 86.0469 112.664 90.1406C113.766 91.7994 114.373 93.7394 114.412 95.732C114.412 97.9672 113.574 100.199 111.898 102.427C115.981 104.477 118.024 107.549 118.028 111.643C118.028 121.878 112.922 126.997 102.71 127H81.2424V87.0703L78.18 84H99.6219ZM99.6219 99.3568C101.667 99.3568 102.69 98.5896 102.69 97.0553C102.69 95.5211 101.667 94.7522 99.6219 94.7487H93.4972V99.3568H99.6219ZM102.69 114.714C104.731 114.714 105.752 113.69 105.752 111.643C105.752 109.593 104.709 108.573 102.69 108.573H93.4972V114.714H102.69Z" fill="#F2F2F2"/>
<path d="M141.556 127C138.735 127.048 135.933 126.516 133.325 125.437C130.716 124.357 128.356 122.753 126.39 120.723C124.366 118.752 122.766 116.386 121.689 113.771C120.612 111.156 120.082 108.347 120.13 105.518C120.082 102.69 120.613 99.8825 121.69 97.2682C122.767 94.654 124.366 92.2887 126.39 90.3185C128.382 88.3218 130.745 86.7379 133.347 85.6573C135.949 84.5767 138.737 84.0205 141.554 84.0205C144.37 84.0205 147.158 84.5767 149.76 85.6573C152.362 86.7379 154.726 88.3218 156.717 90.3185C158.741 92.2887 160.341 94.654 161.417 97.2682C162.494 99.8825 163.025 102.69 162.977 105.518C163.025 108.347 162.495 111.156 161.418 113.771C160.341 116.386 158.741 118.752 156.717 120.723C154.752 122.753 152.393 124.357 149.785 125.436C147.177 126.516 144.377 127.048 141.556 127ZM148.046 112.009C148.916 111.167 149.605 110.154 150.069 109.034C150.533 107.914 150.762 106.71 150.743 105.497C150.762 104.285 150.532 103.083 150.068 101.963C149.604 100.844 148.916 99.8324 148.046 98.9906C147.195 98.1333 146.183 97.453 145.069 96.9888C143.955 96.5246 142.76 96.2857 141.554 96.2857C140.347 96.2857 139.152 96.5246 138.038 96.9888C136.924 97.453 135.912 98.1333 135.061 98.9906C134.191 99.8324 133.503 100.844 133.039 101.963C132.575 103.083 132.345 104.285 132.364 105.497C132.345 106.71 132.575 107.914 133.039 109.034C133.502 110.154 134.191 111.167 135.061 112.009C135.912 112.867 136.924 113.547 138.038 114.011C139.152 114.475 140.347 114.714 141.554 114.714C142.76 114.714 143.955 114.475 145.069 114.011C146.183 113.547 147.195 112.867 148.046 112.009V112.009Z" fill="#F2F2F2"/>
<path d="M186.558 127C183.737 127.048 180.935 126.516 178.327 125.437C175.718 124.357 173.358 122.753 171.392 120.723C169.368 118.752 167.768 116.386 166.691 113.771C165.614 111.156 165.084 108.347 165.132 105.518C165.084 102.69 165.615 99.8825 166.692 97.2682C167.768 94.654 169.368 92.2887 171.392 90.3185C173.383 88.3218 175.747 86.7379 178.349 85.6573C180.951 84.5767 183.739 84.0205 186.556 84.0205C189.372 84.0205 192.16 84.5767 194.762 85.6573C197.364 86.7379 199.728 88.3218 201.719 90.3185C203.743 92.2887 205.343 94.654 206.419 97.2682C207.496 99.8825 208.027 102.69 207.979 105.518C208.027 108.347 207.497 111.156 206.42 113.771C205.343 116.386 203.743 118.752 201.719 120.723C199.754 122.753 197.394 124.357 194.787 125.436C192.179 126.516 189.379 127.048 186.558 127V127ZM193.048 112.009C193.918 111.167 194.607 110.154 195.071 109.034C195.535 107.914 195.764 106.71 195.745 105.497C195.764 104.285 195.534 103.083 195.07 101.963C194.606 100.844 193.918 99.8324 193.048 98.9906C192.197 98.1333 191.185 97.453 190.071 96.9888C188.957 96.5246 187.762 96.2857 186.556 96.2857C185.349 96.2857 184.154 96.5246 183.04 96.9888C181.926 97.453 180.914 98.1333 180.063 98.9906C179.193 99.8324 178.505 100.844 178.041 101.963C177.577 103.083 177.347 104.285 177.366 105.497C177.347 106.71 177.576 107.914 178.04 109.034C178.504 110.154 179.193 111.167 180.063 112.009C180.914 112.867 181.926 113.547 183.04 114.011C184.154 114.475 185.349 114.714 186.556 114.714C187.762 114.714 188.957 114.475 190.071 114.011C191.185 113.547 192.197 112.867 193.048 112.009V112.009Z" fill="#F2F2F2"/>
</g>
<g opacity="0.4" clip-path="url(#clip1_8_347)">
<path opacity="0.12" d="M113.824 31.6564V30.8478C113.823 27.0971 114.562 23.383 115.997 19.9177C117.433 16.4524 119.537 13.3037 122.19 10.6516C124.843 7.99943 127.993 5.89578 131.459 4.46078C134.926 3.02578 138.641 2.28756 142.393 2.28828H225.249V195.632H142.393C138.641 195.631 134.926 196.369 131.46 197.804C127.994 199.238 124.845 201.342 122.192 203.993C119.539 206.645 117.434 209.793 115.999 213.257C114.563 216.722 113.824 220.436 113.824 224.186V224.978" fill="white"/>
<path opacity="0.24" d="M113.714 31.9975V31.1889C113.712 23.6508 110.718 16.4215 105.388 11.0892C100.058 5.75687 92.8287 2.75763 85.2882 2.75034H2.75124V195.274H85.2882C92.8344 195.274 100.072 198.271 105.408 203.605C110.744 208.94 113.741 216.175 113.741 223.718V224.521" fill="white"/>
<g opacity="0.8">
<path opacity="0.8" d="M116.465 224.532H110.963V223.729C110.958 216.92 108.253 210.39 103.44 205.572C98.6274 200.753 92.0997 198.039 85.2882 198.025H0V0H85.2882C93.5605 0.00873387 101.492 3.29733 107.341 9.14433C113.191 14.9913 116.482 22.9193 116.493 31.1889V31.9975H110.99V31.1889C110.981 24.3777 108.271 17.848 103.452 13.0323C98.6339 8.21655 92.1016 5.50796 85.2882 5.50068H5.50246V192.524H85.2882C93.5614 192.533 101.493 195.822 107.343 201.67C113.193 207.518 116.484 215.448 116.493 223.718L116.465 224.532Z" fill="url(#paint0_linear_8_347)"/>
<path opacity="0.8" d="M117.037 224.532H111.535V223.729C111.541 215.457 114.83 207.525 120.68 201.674C126.531 195.824 134.464 192.533 142.739 192.524H222.525V5.50068H142.739C135.926 5.50796 129.394 8.21655 124.575 13.0323C119.757 17.848 117.046 24.3777 117.037 31.1889V31.9975H111.535V31.1889C111.545 22.9193 114.836 14.9913 120.686 9.14433C126.536 3.29733 134.467 0.00873387 142.739 0L228.028 0V198.025H142.739C135.925 198.032 129.392 200.741 124.573 205.558C119.755 210.375 117.045 216.906 117.037 223.718V224.532Z" fill="url(#paint1_linear_8_347)"/>
</g>
</g>

</svg>
