<svg width="44" height="44" viewBox="0 0 44 44" fill="none" xmlns="http://www.w3.org/2000/svg">
<path d="M0.441406 24.1667H12.3082C12.679 31.0282 14.8661 37.668 18.6457 43.4067C13.9114 42.663 9.557 40.3715 6.26328 36.8904C2.96955 33.4093 0.922228 28.9348 0.441406 24.1667ZM0.441406 19.8333C0.922228 15.0651 2.96955 10.5907 6.26328 7.1096C9.557 3.62849 13.9114 1.33697 18.6457 0.593323C14.8661 6.33198 12.679 12.9718 12.3082 19.8333H0.441406ZM43.5581 19.8333H31.6912C31.3205 12.9718 29.1334 6.33198 25.3537 0.593323C30.0881 1.33697 34.4425 3.62849 37.7362 7.1096C41.0299 10.5907 43.0773 15.0651 43.5581 19.8333ZM43.5581 24.1667C43.0773 28.9348 41.0299 33.4093 37.7362 36.8904C34.4425 40.3715 30.0881 42.663 25.3537 43.4067C29.1334 37.668 31.3205 31.0282 31.6912 24.1667H43.5602H43.5581ZM16.6481 24.1667H27.3514C26.9948 30.0155 25.1529 35.6769 21.9997 40.616C18.8466 35.6769 17.0047 30.0155 16.6481 24.1667ZM16.6481 19.8333C17.0047 13.9844 18.8466 8.32304 21.9997 3.38399C25.1529 8.32304 26.9948 13.9844 27.3514 19.8333H16.6481Z" fill="#3D40C6"/>
</svg>
