<svg width="44" height="42" viewBox="0 0 44 42" fill="none" xmlns="http://www.w3.org/2000/svg">
<path d="M37.1668 24.3333V30.8333H43.6668V35.1667H37.1668V41.6667H32.8335V35.1667H26.3335V30.8333H32.8335V24.3333H37.1668ZM39.86 4.30683C44.54 8.99983 44.9062 16.347 40.9585 21.4452C39.1732 20.52 37.1452 20 35.0002 20C27.8198 20 22.0002 25.8197 22.0002 33C22.0002 35.1862 22.5397 37.2467 23.493 39.0537L21.998 40.5508L3.62901 22.1515C-0.929657 17.0468 -0.75849 9.20783 4.14034 4.30683C9.04784 -0.598501 16.8977 -0.763169 22.0023 3.81283C27.0918 -0.756668 34.9568 -0.605001 39.86 4.30683Z" fill="#3D40C6"/>
</svg>
