<svg width="44" height="44" viewBox="0 0 44 44" fill="none" xmlns="http://www.w3.org/2000/svg">
<path d="M26.3334 0.333338C30.2984 0.331445 34.1441 1.68895 37.2293 4.17944C40.3144 6.66994 42.4525 10.1429 43.2869 14.019C44.1213 17.8952 43.6015 21.9402 41.8144 25.4795C40.0272 29.0189 37.0806 31.8385 33.4661 33.4682C32.3107 36.0225 30.553 38.2584 28.3438 39.9843C26.1345 41.7101 23.5396 42.8743 20.7816 43.3771C18.0236 43.8798 15.1848 43.7061 12.5087 42.8708C9.83259 42.0355 7.399 40.5636 5.41666 38.5813C3.43432 36.5989 1.96239 34.1653 1.1271 31.4892C0.291812 28.8131 0.118095 25.9743 0.620847 23.2163C1.1236 20.4583 2.28782 17.8634 4.01366 15.6541C5.73949 13.4449 7.97545 11.6872 10.5298 10.5318C11.9037 7.49176 14.1255 4.91259 16.9287 3.10365C19.7318 1.29472 22.9973 0.332822 26.3334 0.333338ZM19.8334 15.5H15.5001V17.6667C14.092 17.6632 12.7379 18.2083 11.7249 19.1862C10.7118 20.1642 10.1194 21.4982 10.0732 22.9056C10.027 24.3129 10.5306 25.6829 11.4773 26.7252C12.4241 27.7675 13.7395 28.4002 15.1448 28.4892L15.5001 28.5H19.8334L20.0284 28.5173C20.2782 28.5626 20.5042 28.6941 20.6669 28.8889C20.8296 29.0837 20.9187 29.3295 20.9187 29.5833C20.9187 29.8372 20.8296 30.083 20.6669 30.2778C20.5042 30.4726 20.2782 30.6041 20.0284 30.6493L19.8334 30.6667H11.1668V35H15.5001V37.1667H19.8334V35C21.2415 35.0034 22.5956 34.4584 23.6087 33.4804C24.6217 32.5025 25.2141 31.1684 25.2603 29.7611C25.3066 28.3538 24.8029 26.9838 23.8562 25.9414C22.9094 24.8991 21.594 24.2665 20.1888 24.1775L19.8334 24.1667H15.5001L15.3051 24.1493C15.0553 24.1041 14.8293 23.9726 14.6666 23.7778C14.5039 23.583 14.4148 23.3372 14.4148 23.0833C14.4148 22.8295 14.5039 22.5837 14.6666 22.3889C14.8293 22.1941 15.0553 22.0626 15.3051 22.0173L15.5001 22H24.1668V17.6667H19.8334V15.5ZM26.3334 4.66667C24.4976 4.66452 22.6822 5.05221 21.0074 5.80409C19.3325 6.55596 17.8365 7.65489 16.6181 9.02817C19.067 8.87951 21.5196 9.25241 23.8136 10.1222C26.1076 10.992 28.1909 12.3389 29.9256 14.0739C31.6604 15.8088 33.007 17.8922 33.8765 20.1864C34.7461 22.4805 35.1187 24.9331 34.9698 27.382C36.9397 25.6305 38.3307 23.3216 38.9582 20.7613C39.5857 18.2011 39.4201 15.5107 38.4833 13.0467C37.5465 10.5828 35.8828 8.46189 33.7129 6.96525C31.543 5.46861 28.9694 4.66698 26.3334 4.66667Z" fill="#3D40C6"/>
</svg>
