<svg width="48" height="40" viewBox="0 0 48 40" fill="none" xmlns="http://www.w3.org/2000/svg">
<path d="M38.9519 15.6667C39.8078 17.1521 41.2161 18.239 42.8698 18.6907C44.5236 19.1424 46.2889 18.9222 47.781 18.0782C47.9565 19.6461 47.6386 21.2297 46.8716 22.6084C46.1045 23.9871 44.9266 25.0922 43.5019 25.7698L43.4997 39.5H30.4997V35.1667C30.5013 33.4747 29.8432 31.8488 28.665 30.6344C27.4869 29.42 25.8817 28.7129 24.1904 28.6632C22.4992 28.6136 20.8553 29.2253 19.6079 30.3685C18.3606 31.5117 17.6082 33.0962 17.5105 34.7853L17.4997 35.1667V39.5H4.4997V25.772C3.07218 25.0953 1.89164 23.9897 1.12292 22.6096C0.354195 21.2295 0.0356843 19.6437 0.211863 18.0738C1.70391 18.9196 3.46983 19.1412 5.12457 18.6903C6.77932 18.2393 8.18868 17.1525 9.04536 15.6667H38.9519ZM34.911 0.5C35.066 1.57488 35.45 2.60394 36.0372 3.51755C36.6243 4.43116 37.4008 5.20801 38.3141 5.79554C39.2275 6.38308 40.2563 6.76758 41.3312 6.92305C42.406 7.07851 43.5016 7.00131 44.544 6.69667C44.3585 8.49191 43.5388 10.1621 42.2322 11.4072C40.9256 12.6522 39.2178 13.3904 37.4157 13.4892L36.9997 13.5H10.9997C9.1233 13.5003 7.31343 12.8049 5.91995 11.5483C4.52648 10.2917 3.64836 8.56311 3.45536 6.69667C4.49776 7.00131 5.59342 7.07851 6.66823 6.92305C7.74305 6.76758 8.77193 6.38308 9.68527 5.79554C10.5986 5.20801 11.3751 4.43116 11.9622 3.51755C12.5493 2.60394 12.9334 1.57488 13.0884 0.5H34.911Z" fill="#3D40C6"/>
</svg>
