<svg width="44" height="44" viewBox="0 0 44 44" fill="none" xmlns="http://www.w3.org/2000/svg">
<path d="M6.67968 37.3205C4.66476 35.3108 3.06684 32.9227 1.97776 30.2935C0.88867 27.6643 0.329886 24.8458 0.333514 22C0.333514 10.0335 10.0337 0.333332 22.0002 0.333332C33.9667 0.333332 43.6668 10.0335 43.6668 22C43.6668 33.9665 33.9667 43.6667 22.0002 43.6667H0.333514L6.67968 37.3205ZM13.3335 24.1667C13.3335 26.4652 14.2466 28.6696 15.8719 30.2949C17.4972 31.9202 19.7016 32.8333 22.0002 32.8333C24.2987 32.8333 26.5031 31.9202 28.1284 30.2949C29.7538 28.6696 30.6668 26.4652 30.6668 24.1667H13.3335Z" fill="#3D40C6"/>
</svg>
