<svg width="46" height="45" viewBox="0 0 46 45" fill="none" xmlns="http://www.w3.org/2000/svg">
<path d="M5.67967 42.5508L18.346 29.8845C19.2674 30.1315 20.2446 30.0675 21.126 29.7025C22.0073 29.3375 22.7436 28.6919 23.2206 27.8657C23.6976 27.0396 23.8887 26.0792 23.7642 25.1334C23.6397 24.1876 23.2066 23.3093 22.532 22.6348C21.8575 21.9602 20.9792 21.5271 20.0334 21.4026C19.0876 21.2781 18.1272 21.4692 17.3011 21.9462C16.475 22.4232 15.8293 23.1595 15.4643 24.0409C15.0993 24.9222 15.0354 25.8994 15.2823 26.8208L2.616 39.4872L0.319336 37.1905C6.4445 30.0405 8.74334 22.1235 11.807 8.84616L25.5957 7.31432L37.8525 19.5712L36.3207 33.3598C23.0433 36.4235 15.1263 38.7223 7.9785 44.8497L5.67967 42.553V42.5508ZM30.9582 0.419988L44.71 14.1697C44.8517 14.3111 44.9514 14.4891 44.9981 14.6838C45.0448 14.8785 45.0366 15.0824 44.9744 15.2727C44.9122 15.463 44.7985 15.6324 44.6459 15.762C44.4933 15.8917 44.3077 15.9765 44.1098 16.007L40.9162 16.5053L28.6615 4.25065L29.1208 1.03315C29.1494 0.834191 29.2327 0.647095 29.3616 0.492795C29.4904 0.338494 29.6596 0.223074 29.8502 0.159444C30.0409 0.0958136 30.2455 0.0864835 30.4412 0.132497C30.6368 0.17851 30.8158 0.278051 30.9582 0.419988Z" fill="#3D40C6"/>
</svg>
