<svg width="42" height="45" viewBox="0 0 42 45" fill="none" xmlns="http://www.w3.org/2000/svg">
<path d="M26.1308 6.529L18.5821 19.6048L22.3348 21.7715L29.8834 8.69566C38.9184 14.7017 43.5464 24.0357 39.7635 30.5833C35.7334 37.5643 24.1873 37.8525 13.9584 31.9483C3.72961 26.0377 -1.79322 15.8955 2.23678 8.91667C6.01761 2.36683 16.4133 1.70817 26.1308 6.529ZM29.4154 0.841499L33.1681 3.00817L29.9181 8.63717L26.1654 6.4705L29.4154 0.841499ZM9.58611 40.3333H31.8334V44.6667H5.87028C5.48353 44.6743 5.10183 44.5778 4.76522 44.3872C4.42861 44.1966 4.14948 43.9189 3.95711 43.5833C3.768 43.2536 3.6685 42.8801 3.6685 42.5C3.6685 42.1199 3.768 41.7464 3.95711 41.4167L8.83211 32.9732L12.5848 35.1398L9.58611 40.3333Z" fill="#3D40C6"/>
</svg>
